<svg xmlns="http://www.w3.org/2000/svg" width="256" height="256" viewBox="0 0 100 100"><rect width="100" height="100" rx="20" fill="#e9ad28"></rect><path d="M83.14 17.65Q85.35 17.97 86.18 18.99Q87.01 20.02 87.01 21.68L87.01 21.68Q87.01 27.13 81.17 26.73L81.17 26.73L78.40 26.50Q73.74 26.10 69.12 25.87Q64.50 25.63 59.44 25.63L59.44 25.63L55.89 25.63Q54.94 37.32 53.91 46.96L53.91 46.96L67.50 46.72Q70.42 46.72 71.41 47.75Q72.40 48.78 72.40 50.51L72.40 50.51Q72.40 53.20 70.82 54.74Q69.24 56.28 66.31 56.28L66.31 56.28L52.80 56.28L52.33 59.68Q50.67 72.71 45.26 78.24Q39.85 83.77 30.37 83.77L30.37 83.77Q25.00 83.77 20.49 81.44Q15.99 79.11 13.86 75.79L13.86 75.79Q12.99 74.45 12.99 72.55L12.99 72.55Q12.99 70.66 13.90 69.24Q14.81 67.81 16.15 67.81L16.15 67.81Q17.10 67.81 18.01 68.45Q18.91 69.08 20.34 70.90L20.34 70.90Q24.13 75.87 29.74 75.87L29.74 75.87Q34.24 75.87 37.28 72.20Q40.32 68.53 41.19 60.63L41.19 60.63L41.67 56.28L37.87 56.28Q36.06 56.28 34.75 55.25Q33.45 54.23 33.45 52.33L33.45 52.33Q33.45 49.88 34.71 48.58Q35.98 47.27 38.43 47.27L38.43 47.27Q40.64 47.27 42.77 47.20L42.77 47.20Q43.72 38.51 44.83 26.10L44.83 26.10Q36.29 26.89 32.82 28.87Q29.34 30.84 29.34 34.71L29.34 34.71Q29.34 37.40 30.92 39.85L30.92 39.85Q31.40 40.56 31.40 41.27L31.40 41.27Q31.40 42.69 29.82 43.76Q28.24 44.83 26.26 44.83L26.26 44.83Q24.13 44.83 22.63 43.56L22.63 43.56Q21.68 42.77 20.81 40.32Q19.94 37.87 19.94 34.87L19.94 34.87Q19.94 25.08 30.01 20.65Q40.09 16.23 59.44 16.23L59.44 16.23Q72.87 16.23 83.14 17.65L83.14 17.65Z" fill="#fff"></path></svg>